<?xml version="1.0" encoding="UTF-8"?>
<svg xmlns="http://www.w3.org/2000/svg" width="306" height="126.81" viewBox="0 0 306 126.81">
  <title>logo-01</title>
  <path d="M153.57,89.58a27.44,27.44,0,0,1-8.94-1.44,16.2,16.2,0,0,1-7-4.62,16.37,16.37,0,0,1-3.69-8.34h8.51A8.36,8.36,0,0,0,145,79.26a10,10,0,0,0,4.19,2,21.15,21.15,0,0,0,4.89.57,14.81,14.81,0,0,0,4.19-.57,7.41,7.41,0,0,0,3.28-1.91,4.86,4.86,0,0,0,1.31-3.55,4.81,4.81,0,0,0-.71-2.72,5.68,5.68,0,0,0-1.94-1.74,11,11,0,0,0-3-1.1,35,35,0,0,0-3.62-.94c-1.3-.27-2.57-.56-3.82-.87a22.17,22.17,0,0,1-3.55-1.21,34.39,34.39,0,0,1-4.12-1.71,12.88,12.88,0,0,1-3.42-2.38,10.43,10.43,0,0,1-2.31-3.48,12.74,12.74,0,0,1-.87-5A13.25,13.25,0,0,1,136.61,49a11.13,11.13,0,0,1,2.94-3.92,14.32,14.32,0,0,1,4.16-2.41,24.28,24.28,0,0,1,4.82-1.27,30.66,30.66,0,0,1,4.79-.41,21.47,21.47,0,0,1,8.08,1.48,13.92,13.92,0,0,1,6,4.55,14.35,14.35,0,0,1,2.72,8H162a6.09,6.09,0,0,0-1.61-3.65,7.87,7.87,0,0,0-3.35-2,14,14,0,0,0-4.36-.64,18.79,18.79,0,0,0-3.18.27,9,9,0,0,0-2.81.94,5.67,5.67,0,0,0-2,1.77,4.72,4.72,0,0,0-.77,2.78,4.55,4.55,0,0,0,.73,2.58,5.87,5.87,0,0,0,2,1.85,18.23,18.23,0,0,0,3.11,1.34,24.83,24.83,0,0,0,5.13,1.4,38,38,0,0,1,5.26,1.28,26.09,26.09,0,0,1,4.45,1.64,14.3,14.3,0,0,1,3.52,2.34,9.72,9.72,0,0,1,2.31,3.35,12.12,12.12,0,0,1,.84,4.73,14.67,14.67,0,0,1-1.44,6.8,12.29,12.29,0,0,1-3.95,4.52,17,17,0,0,1-5.7,2.51A28.19,28.19,0,0,1,153.57,89.58Z" transform="translate(0)" fill="#081b38"></path>
  <path d="M177.63,89.05V53.74h7.5l.54,4A10.41,10.41,0,0,1,188.58,55a11.16,11.16,0,0,1,3.28-1.38,14.17,14.17,0,0,1,3.25-.4,11.44,11.44,0,0,1,5.73,1.34,9.11,9.11,0,0,1,3.72,4,12.37,12.37,0,0,1,6.57-4.79,13.58,13.58,0,0,1,4-.57,11.45,11.45,0,0,1,6.57,1.71,9.75,9.75,0,0,1,3.61,4.69,19,19,0,0,1,1.14,6.8V89.05h-8.17V69a19.51,19.51,0,0,0-.14-2.81,8.7,8.7,0,0,0-.7-2.75,5.18,5.18,0,0,0-1.64-2.07,4.92,4.92,0,0,0-3-.81,5.57,5.57,0,0,0-3.18.84,6.33,6.33,0,0,0-2,2.21,9.79,9.79,0,0,0-1.07,3,17.7,17.7,0,0,0-.3,3.25V89.05H198V69a24.66,24.66,0,0,0-.16-2.72,11.68,11.68,0,0,0-.67-2.74,4.48,4.48,0,0,0-1.61-2.11,5,5,0,0,0-3.05-.81,5.5,5.5,0,0,0-4.25,1.54,8,8,0,0,0-1.95,3.75,19.32,19.32,0,0,0-.5,4.22v19Z" transform="translate(0)" fill="#081b38"></path>
  <path d="M237.05,49.65a5.1,5.1,0,0,1-3.75-1.41,5,5,0,0,1-1.4-3.68,4.9,4.9,0,0,1,1.47-3.65,5.05,5.05,0,0,1,3.68-1.44,5.35,5.35,0,0,1,3.69,1.4,4.76,4.76,0,0,1,1.54,3.69,4.84,4.84,0,0,1-1.47,3.68A5.24,5.24,0,0,1,237.05,49.65ZM233,89.05V53.74h8.17V89.05Z" transform="translate(0)" fill="#081b38"></path>
  <path d="M248,89.05V41.68h8.18V89.05Z" transform="translate(0)" fill="#081b38"></path>
  <path d="M267.2,49.65a5.1,5.1,0,0,1-3.75-1.41A5,5,0,0,1,262,44.56a4.91,4.91,0,0,1,1.48-3.65,5.05,5.05,0,0,1,3.68-1.44,5.35,5.35,0,0,1,3.69,1.4,4.76,4.76,0,0,1,1.54,3.69A4.85,4.85,0,0,1,271,48.24,5.25,5.25,0,0,1,267.2,49.65Zm-4.08,39.4V53.74h8.17V89.05Z" transform="translate(0)" fill="#081b38"></path>
  <path d="M276.85,89.05v-6.3L295.48,61H276.85V53.74H306V60L287.24,81.81H306v7.24Z" transform="translate(0)" fill="#081b38"></path>
  <path d="M92.22,37.1a28,28,0,0,1-13.7,2.68c-2-.09-4.88-.58-6.56-1.76l-1.46-.71,1.68-.89c-.54,0-2,1-2.57,1.23-8.66,3.29-19.45,5.5-28.15,1.67a5.62,5.62,0,0,1-3.23-3.24c-2.17-1-4-2.61-6.26-3.43C27.48,31,23.17,31.42,19.17,29a17.07,17.07,0,0,0-6.75,2.73c-14.36,9.82-16.1,46.89-6.09,69.68s17.51,30.64,21.09,21.91,10.77-19.73,22.3-19.84c11.53.22,18.7,11.12,22.29,19.84s11.09.77,21.1-21.91C101.77,81.79,101.7,51.31,92.22,37.1Z" transform="translate(0)" fill="#09243c"></path>
  <path d="M87.24,85.93C95,75.14,97.68,50.5,96.59,46.57c-2.07-7-5-11.78-9.46-14.83C76.58,24.44,61.25,32,54,36.32a8.21,8.21,0,0,1-8.37,0C38.3,31.85,23,24.44,12.42,31.74,8.18,34.69,5,40,3,46.57a63.45,63.45,0,0,0,9.35,39.36c7.07,11.67,17.07,18.32,26.86,21.16a18.75,18.75,0,0,1,10.66-3.71,19,19,0,0,1,10.65,3.71C70.16,104.25,79.3,97.06,87.24,85.93Z" transform="translate(0)" fill="#e5e5e5"></path>
  <path d="M93.22,38.61a22.09,22.09,0,0,0-6-6.87c-10.55-7.3-25.89.22-33.17,4.58a8.26,8.26,0,0,1-4.13,1.2,8,8,0,0,1-4.14-1.2c-7.28-4.47-22.62-11.88-33.17-4.58a19.64,19.64,0,0,0-6,6.87C1,52.13,9.37,72.85,17,83.64c9.25,13.2,20.67,20.18,32.85,19.85,12.07.33,23.6-6.65,33.06-19.85C90.5,72.85,98.76,52,93.22,38.61Z" transform="translate(0)" fill="#ffd152"></path>
  <path d="M55.16,49.62H44.5V82.55H55.16Z" transform="translate(0)" fill="#09243c"></path>
  <path d="M66.18,71.46V60.77H33.33V71.46Z" transform="translate(0)" fill="#09243c"></path>
  <path d="M49.77,11.71,52,19l6.54,2.48L52,24l-2.24,7.27L47.54,24,41,21.46,47.54,19Z" transform="translate(0)" fill="#09243c"></path>
  <path d="M66.36,0l2.48,7.27,7.27,2.49-7.27,2.48-2.48,7.27-2.49-7.27L56.6,9.76l7.27-2.49Z" transform="translate(0)" fill="#09243c"></path>
  <path d="M33.19,0l2.48,7.27,7.27,2.49-7.27,2.48-2.48,7.27L30.7,12.24,23.43,9.76,30.7,7.27Z" transform="translate(0)" fill="#09243c"></path>
</svg>
