<svg xmlns="http://www.w3.org/2000/svg" viewBox="0 0 48 48" fill="none" aria-hidden="true">
  <circle cx="24" cy="24" r="24" fill="#e8f4fd"/>
  <path d="M24 10c-4.5 0-8 3.2-8 7.5 0 2.1.6 3.4 1.2 5.2.5 1.5 1 3.1 1 5.3 0 2.8-1.2 4.5-2.4 6.8-.9 1.6-1.6 3.2-1.6 5.2h2.4c0-1.4.5-2.6 1.2-3.8.8-1.4 1.6-2.8 1.6-5.2 0-1.6-.4-2.8-.9-4.1-.6-1.5-1.1-2.9-1.1-4.9 0-2.8 2.5-5.1 5.8-5.1s5.8 2.3 5.8 5.1c0 2-.5 3.4-1.1 4.9-.5 1.3-.9 2.5-.9 4.1 0 2.4.8 3.8 1.6 5.2.7 1.2 1.2 2.4 1.2 3.8h2.4c0-2-1-3.6-1.6-5.2-1.2-2.3-2.4-4-2.4-6.8 0-2.2.5-3.8 1-5.3.6-1.8 1.2-3.1 1.2-5.2C32 13.2 28.5 10 24 10z" fill="#2196f3"/>
</svg>
